<svg fill="#F38F19" xmlns="http://www.w3.org/2000/svg" data-name="Слой 1" viewBox="0 0 128 128" x="0px" y="0px"><title>Precious Pumpkins</title><path d="M92.68,37.82a29.47,29.47,0,0,0-11,2.14c-.49-.12-1-.23-1.49-.33-5-2-8.09-4.69-9.24-8-1.29-3.78.23-7.57,1.74-10.08a6.36,6.36,0,0,1,7.87-3A2,2,0,0,0,82,14.75a10.36,10.36,0,0,0-12.77,4.7c-2.78,4.64-3.51,9.28-2.1,13.43a14.64,14.64,0,0,0,4.57,6.43,28.2,28.2,0,0,0-5.59,1.19,2,2,0,0,0-.25.11,10.82,10.82,0,0,0-2-.21,11,11,0,0,0-4.1.81,23.13,23.13,0,0,0-5.69-1.77A19.63,19.63,0,0,0,60,30.05C64,16,66.41,10.3,75.54,6.88A7.77,7.77,0,0,1,83.94,9l-.32.48a2,2,0,1,0,3.33,2.22L88.1,10a2,2,0,0,0,0-2.26C86.19,5,80.85.62,74.13,3.13,62.81,7.38,60.05,15.31,56.15,29a16.22,16.22,0,0,1-9.46,10.47l-.15,0a27.45,27.45,0,0,0-25.36.36,2,2,0,1,0,1.87,3.54,23.74,23.74,0,0,1,11.17-2.83,23.2,23.2,0,0,1,6.3.88C28.58,47.15,20,63,20,81.72a57.55,57.55,0,0,0,2.51,17,2,2,0,0,0,3.82-1.18A53.56,53.56,0,0,1,24,81.72c0-19.92,10.36-36.37,23.6-38.4h0a18.17,18.17,0,0,1,7.94.56C48.21,50.35,43.18,65.25,43.18,83c0,16.06,4.11,29.77,10.32,37a18.17,18.17,0,0,1-3.16.29c-5,0-9.9-2.09-14.13-6.05a2,2,0,1,0-2.73,2.92,29.63,29.63,0,0,0,3.67,2.93,23.12,23.12,0,0,1-2.92.2C17.56,120.33,4,102.43,4,80.43,4,67.3,8.91,55,17.15,47.53a2,2,0,0,0-2.69-3C5.4,52.78,0,66.19,0,80.43c0,24.21,15.35,43.9,34.22,43.9A27.32,27.32,0,0,0,42.68,123a22.09,22.09,0,0,0,14.33.32,11.86,11.86,0,0,0,6.87,2.33,11.6,11.6,0,0,0,6-1.74,27.59,27.59,0,0,0,13.74-1,29.39,29.39,0,0,0,9.05,1.44c19.47,0,35.32-19.41,35.32-43.26S112.16,37.82,92.68,37.82Zm0,82.52a25.25,25.25,0,0,1-3-.2A32.59,32.59,0,0,0,93,117.85a2,2,0,1,0-2.46-3.15,25.46,25.46,0,0,1-15.72,5.64c-.26,0-.51,0-.76,0a28.79,28.79,0,0,0,3.26-4.65,56.14,56.14,0,0,0,6-18A2,2,0,1,0,79.4,97a52.16,52.16,0,0,1-5.54,16.65c-2.93,5.13-6.48,8-10,8-9,0-16.7-17.68-16.7-38.61S54.83,44.4,63.88,44.4c3.59,0,6.47,2.88,8.26,5.3a2,2,0,0,0,3.22-2.38,21.17,21.17,0,0,0-3.77-4,23.92,23.92,0,0,1,3.25-.24c16.67,0,30.23,17.32,30.23,38.61,0,10.64-3.5,20.93-9.61,28.21a2,2,0,1,0,3.07,2.57c6.8-8.11,10.54-19,10.54-30.78,0-17.78-8.8-33.05-21.26-39.43a25.26,25.26,0,0,1,4.88-.48C110,41.82,124,59.43,124,81.08S110,120.33,92.68,120.33Z"></path></svg>