<svg fill="#B36AE2" xmlns="http://www.w3.org/2000/svg" xmlns:xlink="http://www.w3.org/1999/xlink" xml:space="preserve" version="1.1" style="shape-rendering:geometricPrecision;text-rendering:geometricPrecision;image-rendering:optimizeQuality;" viewBox="0 0 677 733" x="0px" y="0px" fill-rule="evenodd" clip-rule="evenodd"><defs><style type="text/css">
   
    .fil0 {fill:#B36AE2}
   
  </style></defs><g><path class="fil0" d="M506 388c11,-106 -153,-380 -336,-380 -9,0 150,35 275,223 6,9 -43,-60 -115,-122 -38,-33 -84,-63 -130,-83l-36 -16 -47 -8c115,42 276,163 335,277 22,43 -29,-53 -126,-140 -194,-176 -357,-166 -321,-75 19,47 46,67 69,132 7,29 10,61 22,89 20,51 16,48 51,92 6,18 3,3 69,-7 188,-27 209,25 232,45 -1,2 -1,4 -1,7 -17,-33 -85,-60 -151,-54l-89 8 14 10c151,-20 103,-9 176,26 42,20 21,-24 34,15 0,0 3,6 7,11 -5,2 -11,0 -17,3 -8,-16 -62,-47 -66,-43 -2,1 2,7 7,12 30,35 -35,13 -9,35 24,20 -17,37 -13,53l-141 179c-42,56 10,30 18,5 16,-48 40,-45 30,-20 0,0 -34,21 -20,31 20,14 79,-103 89,-119 -6,15 -10,29 -7,45 7,31 57,-4 55,-8 -2,-5 -35,-17 -35,-19 0,-4 35,14 40,14 5,0 15,-5 9,-11 -10,-10 -29,-12 -38,-18 -8,-5 44,15 44,15 5,0 15,-11 15,-17 -1,-6 -36,-21 -44,-27 -6,-5 24,10 25,10 3,1 25,13 25,13 11,-2 21,-23 -3,-35 -8,-4 -18,-6 -21,-8 -6,-3 19,-1 37,18 11,11 14,-7 12,-13 -3,-7 -11,-12 -17,-16 -6,-3 -11,-5 -13,-5 -1,-1 4,-1 9,2 11,5 28,17 29,17 9,0 13,-18 16,-22 1,-2 3,-4 4,-5 9,5 20,3 21,-11 15,17 -8,31 28,78l8 1c-5,-21 -33,-14 -19,-90 1,-2 6,-6 8,-7 2,1 12,25 18,29 7,5 19,3 27,3 9,1 13,5 16,8 3,3 5,4 7,8 1,3 2,8 3,11 1,2 3,2 3,-1 1,-3 0,-10 -3,-15 -2,-4 -6,-7 -10,-10 -5,-3 -10,-7 -17,-7 -6,-1 -14,0 -19,-4 -5,-3 -7,-12 -9,-18 -2,-6 -4,-9 -3,-12 0,-1 0,-1 0,-2l7 -5c1,-1 4,-3 8,-5l1 1c8,6 7,29 12,34 4,4 31,19 39,29 3,3 -1,-14 -3,-14 -29,-13 -35,-31 -35,-50 0,-2 20,19 23,22 13,12 16,18 21,34 4,12 14,12 14,11 -6,-10 -7,-8 -12,-22 -8,-24 -19,-23 -27,-37 -3,-5 -1,-11 -5,-17 -6,-10 -9,-9 -10,-20 1,0 1,0 2,0 12,2 1,1 7,5 1,1 4,0 6,-1 12,-6 11,-7 9,-19 -1,-8 2,-16 -6,-21 -3,-2 -6,-3 -4,-9 1,-5 7,-15 18,-27 25,-27 66,-53 86,-79 9,-11 14,-33 1,-43 -12,-10 -5,28 -5,30 -1,5 -6,12 -13,20 -19,20 -43,37 -64,57 -10,11 -18,21 -23,29 -5,7 -7,12 -8,12 -12,1 38,-108 43,-120 4,-12 7,-33 -7,-40 -5,-2 -26,-1 -6,16 3,3 5,7 2,18 -7,27 -21,58 -31,85 -5,13 -10,25 -11,40 -1,10 0,11 -6,19 -4,6 -3,2 -10,-1 -4,-1 -10,-1 -14,-2 -4,0 -7,-1 -11,-1 1,-2 1,-4 1,-6zm18 44c3,4 9,10 13,14 4,4 7,6 5,4 -1,-2 -6,-7 -10,-12 -5,-5 -9,-9 -11,-11 -2,-3 -3,-4 -2,-3 0,1 1,4 5,8zm-14 5c3,4 10,10 14,13 4,4 7,5 5,4 -1,-2 -6,-7 -11,-11 -5,-5 -9,-9 -11,-12 -3,-2 -3,-3 -3,-2 1,1 2,4 6,8zm-25 18c1,6 4,14 7,19 2,5 4,7 3,5 0,-2 -3,-9 -5,-15 -3,-6 -5,-12 -6,-15 -1,-3 -1,-4 -1,-3 0,1 0,4 2,9zm-12 10c1,6 3,14 5,19 2,6 3,8 3,6 0,-2 -2,-9 -4,-15 -1,-7 -3,-12 -4,-16 0,-3 -1,-4 -1,-3 0,1 0,4 1,9zm82 -61c0,0 7,1 9,6 2,4 4,8 1,9 -11,6 -8,-9 -8,-10 0,-3 -2,-5 -2,-5zm-139 45c-1,2 -1,5 -2,7l-19 -7c10,1 17,1 21,0zm-8 19c-4,5 -8,9 -12,15 -3,0 -8,1 -15,3 -61,19 1,-3 27,-18zm48 -58c-4,-6 -13,-13 -22,-22 -17,-16 -40,-35 -63,-37l-147 -8 -40 -1c72,-18 210,14 178,-11 -31,-23 -231,-11 -189,-17 128,-19 185,20 147,-21 -25,-27 -158,-16 -170,-13l139 -16c-9,-43 -133,-28 -153,-30l128 -11c-10,-33 -168,-35 -159,-38 11,-4 63,3 104,8 29,3 45,5 45,-7 2,-22 -65,-33 -111,-39 -29,-4 -51,-7 -44,-7 37,1 65,2 97,11 38,10 69,21 69,10 0,-28 -247,-60 -183,-57 91,4 189,43 189,43 -7,-33 -205,-71 -215,-77 -2,-1 17,2 35,5 74,12 156,47 164,44 4,-2 -9,-14 -48,-43 -13,-10 -47,-24 -68,-29 -51,-13 -110,-20 -62,-16 132,12 149,65 245,121 5,3 -24,-14 -48,19 -42,58 105,144 99,169 -6,22 0,-11 38,22 18,16 35,38 55,44l-10 4zm-145 -153c-17,-18 -41,-49 -26,-75 11,-20 24,-28 44,-15 13,9 31,25 47,42 16,16 30,34 41,48 40,51 47,112 47,111 -21,-43 -12,-63 -53,-111 -8,-10 -17,-18 -26,-27 -11,-12 -62,-61 -80,-56 -8,3 69,59 79,71 14,16 40,56 55,78 15,21 -80,-98 -63,-68 11,20 44,68 44,68 -6,-3 -47,-62 -55,-72 -13,-18 -41,-51 -62,-57 -5,-2 -3,3 3,8 52,44 59,62 97,112 6,8 14,16 13,17 0,1 -8,-5 -16,-14 -8,-9 -15,-21 -27,-36 -12,-15 -28,-34 -42,-47 -13,-13 -24,-21 -31,-25 -6,-3 -8,-2 -5,2 18,19 41,38 60,59 94,105 -23,-17 -52,-44 -22,-21 20,33 23,35 16,17 38,37 54,53 9,7 18,13 28,21 10,7 21,16 25,20 4,4 2,3 -5,-1 -18,-12 -55,-31 -66,-49 -8,-15 -37,-33 -51,-48z"></path><path class="fil0" d="M317 505c6,-1 6,3 5,6 -3,13 -120,144 -159,209 -4,7 -12,11 -19,13 -12,2 -43,-5 -39,-24 4,-18 68,-82 83,-98 19,-20 64,-72 84,-87 6,-5 39,-18 45,-19z"></path><path class="fil0" d="M223 566c-26,29 -85,92 -109,122 -33,40 -55,-3 -48,-24 6,-14 54,-65 58,-58 2,4 -2,20 15,25 11,3 80,-74 98,-88 27,-21 -11,21 -14,23z"></path><path class="fil0" d="M92 602c4,-2 12,-9 17,-11 1,-2 3,-2 4,-2l1 -1c8,-4 26,-7 40,-14 9,-4 125,-80 73,-68 -10,2 -75,26 -106,33 -5,8 -14,14 -25,15 -21,3 32,-48 -5,-43 -37,6 -1,44 -4,52 -20,11 -31,20 -31,20 -2,-1 -3,-4 -2,-11 8,-41 -2,-48 25,-67 -7,-4 -8,-18 -7,-24 2,-14 16,-31 28,-38 16,-9 41,-6 59,-8 22,-2 -40,-2 -40,-2 -9,-4 19,-34 24,-37 7,-5 58,-21 66,-16 6,3 18,13 14,21 -1,2 -3,8 -6,13 11,2 41,10 48,12 10,1 55,13 55,2 1,-3 1,-8 -10,-13 -11,-4 -32,-8 -47,-14 -15,-5 -24,-11 -26,-15 -3,-4 1,-7 6,-5 18,5 48,29 75,25 25,-3 -15,-16 -15,-16 -2,-1 22,-3 30,9 7,10 -1,12 -3,18 -3,7 0,21 -4,25 -2,2 -7,3 -11,6 -15,13 -74,32 -67,44 15,29 78,-24 81,-32 1,-4 5,-4 6,1 6,33 -56,46 -76,53 -29,11 -68,62 -101,78 -14,6 -34,-1 -37,7 0,1 0,2 -2,3l-2 1c-4,4 -13,11 -21,19 -8,9 -16,18 -21,24 -5,5 -7,6 -9,7 -2,1 -5,1 -8,0 -3,-1 -6,-3 -7,-6 -2,-3 -2,-7 2,-11 3,-5 11,-11 16,-14 5,-2 9,-2 12,-2 2,-1 5,-2 5,-4 0,-1 -2,-3 -4,-5 -1,-1 -1,-3 -1,-5 1,-2 3,-4 3,-6 -1,-2 -3,-4 -6,-5 -3,-1 -8,0 -11,2 -3,3 -4,7 -5,9 -1,3 0,5 1,6 2,2 4,3 6,3 2,0 3,0 4,1 0,0 -2,1 -4,3 -3,2 -8,4 -11,6 -4,3 -5,4 -7,5 -2,0 -3,0 -4,-2 -1,-2 -2,-4 -3,-8 -1,-4 -1,-10 2,-15 2,-6 6,-12 11,-17 6,-6 13,-12 19,-15 6,-4 11,-6 15,-6 4,0 7,1 9,3 2,1 4,3 6,6 1,3 2,6 -1,9 -2,4 -8,8 -11,11 -3,2 -4,3 -4,5 -1,1 -1,3 2,1zm119 -178c-6,3 -32,5 -34,1 -3,-4 7,-12 3,-19 -9,-14 -34,1 -28,12 5,11 23,11 27,17l1 0c10,2 19,16 22,24 3,12 16,11 26,11 10,0 88,-18 73,-26 -18,-11 -42,-11 -62,-14 -11,-1 -21,-3 -28,-6zm-49 50c-8,3 -27,8 -28,3 -6,-44 -32,-25 -36,-10 -3,12 4,18 7,23 18,-3 26,13 23,31 25,-8 62,-4 93,-26 7,-5 11,-10 10,-13 -2,-3 -10,-4 -18,-3 -5,0 -40,0 -51,-5z"></path></g></svg>