<svg fill="#A500FF" xmlns="http://www.w3.org/2000/svg" xmlns:xlink="http://www.w3.org/1999/xlink" xml:space="preserve" version="1.1" style="shape-rendering:geometricPrecision;text-rendering:geometricPrecision;image-rendering:optimizeQuality;" viewBox="0 0 60000 60000" x="0px" y="0px" fill-rule="evenodd" clip-rule="evenodd"><defs><style type="text/css">
   
    .fil0 {fill:#A500FF;fill-rule:nonzero}
   
  </style></defs><g><path class="fil0" d="M9564 50453c217,39 361,246 322,463 -39,217 -246,361 -463,322 -2289,-417 -4098,-1409 -5473,-2787 -1586,-1589 -2588,-3685 -3080,-5995 -487,-2288 -474,-4789 -32,-7213 659,-3621 2276,-7077 4606,-9403 293,-293 587,-571 881,-836 1724,-1554 3620,-2805 5615,-3729 8,-4 15,-8 23,-11l54 -24c115,-53 230,-104 345,-154l79 -35c605,-271 1232,-553 1891,-875 3185,-1556 6106,-3648 4141,-7672 -746,-1528 -2298,-2496 -4005,-2822 -975,-187 -1998,-164 -2950,83 -942,244 -1815,709 -2500,1407 -1057,1077 -1673,2727 -1422,5008 24,219 -134,416 -353,441 -219,24 -416,-134 -441,-353 -281,-2549 432,-4416 1647,-5655 790,-806 1791,-1340 2869,-1619 1068,-277 2212,-303 3300,-95 1939,371 3709,1487 4573,3257 1191,2439 870,4246 -216,5662 301,-184 611,-376 929,-573 4439,-2753 10367,-6429 14479,-1588 274,322 500,663 682,1016 646,1252 728,2645 403,3930 -322,1277 -1048,2452 -2019,3277 -173,147 -354,283 -542,406 266,240 528,489 786,748 264,264 519,533 765,806l128 142c1356,1505 3621,4019 6032,5880 31,9 61,22 89,39 98,58 189,106 275,146 750,345 1424,223 1975,-91 584,-334 1040,-878 1314,-1339 65,-109 117,-208 157,-294 464,-1010 402,-2143 7,-3135 -208,-521 -508,-1004 -873,-1411 -361,-402 -781,-725 -1234,-933 -641,-295 -1353,-360 -2054,-85 -137,60 -302,40 -422,-65 -166,-145 -182,-397 -38,-563 1018,-1160 2127,-1984 3264,-2504 1228,-561 2487,-769 3702,-664 1228,106 2405,528 3468,1181 1518,933 2806,2343 3673,3983 868,1642 1317,3518 1155,5382 -97,1114 -410,2223 -982,3274 251,101 513,176 798,197 677,49 1349,29 2007,-130 652,-158 1301,-455 1947,-963l0 1c82,-64 188,-97 300,-82 218,29 372,230 342,448 -829,6045 -4085,6805 -6751,7427 -1632,381 -3012,703 -3225,2398 50,166 98,332 145,496 367,1268 704,2431 1758,2997l0 0c106,57 185,161 205,289 35,217 -114,422 -331,456 -2888,468 -5056,-214 -6654,-1425 -1702,-1290 -2742,-3177 -3311,-4908l-35 91c-243,628 -478,1238 -298,1887 104,374 230,740 385,1095 153,351 335,693 553,1023l0 0c64,97 86,222 47,342 -67,210 -292,325 -502,258 -5125,-1656 -6044,-5800 -6963,-9943 -198,-892 -396,-1785 -637,-2648 -25,308 -64,615 -115,920 -164,989 -370,1954 -571,2895 -299,1399 -587,2747 -694,3979 -280,3245 778,5698 6666,6206l0 2c136,12 262,93 325,225 95,198 11,436 -188,531 -2735,1313 -5202,1897 -7391,1898 -2414,0 -4486,-707 -6204,-1933 -1709,-1220 -3063,-2951 -4048,-5005 -1175,-2448 -1828,-5360 -1939,-8410 -724,555 -1662,858 -2803,778 -200,318 -439,610 -714,870 -1007,951 -2486,1455 -4282,1108l0 -1c-205,-39 -347,-231 -320,-441 183,-1442 -112,-2473 -671,-3072 -292,-313 -660,-508 -1071,-580 -427,-76 -902,-22 -1388,164 -1217,468 -2491,1750 -3322,3920 -754,2199 -803,4160 -343,5774 500,1755 1603,3104 3051,3903 193,106 264,349 158,542 -106,193 -349,264 -542,158 -1633,-902 -2876,-2417 -3436,-4385 -502,-1764 -455,-3890 357,-6255 3,-8 6,-17 10,-25 920,-2400 2375,-3836 3784,-4377 626,-241 1245,-308 1810,-208 581,103 1103,380 1518,824 657,703 1032,1825 917,3331 1354,167 2462,-240 3226,-962 273,-258 504,-557 687,-885 6,-12 13,-24 20,-36 120,-220 218,-453 294,-695 195,-622 241,-1302 115,-1981 -252,-1355 -1194,-2710 -3004,-3600 -198,-97 -279,-335 -183,-533 97,-198 335,-279 533,-183 2065,1015 3143,2588 3438,4172 151,810 96,1621 -136,2362 -32,102 -67,203 -106,302 1151,-15 2012,-526 2574,-1301 383,-529 632,-1180 743,-1884 113,-714 85,-1481 -90,-2229 -402,-1725 -1583,-3338 -3593,-3947 -1421,-430 -2784,-148 -4130,538 -1398,712 -2780,1856 -4185,3102 -165,146 -417,130 -563,-34 -146,-165 -130,-417 34,-563 1338,-1186 2659,-2284 4009,-3035 377,-215 606,-349 837,-485 2247,-1314 4700,-2748 7462,-2641 816,32 1561,186 2237,440 1676,630 2915,1869 3717,3381 791,1492 1155,3252 1089,4948 -39,995 -225,1970 -558,2857 -78,206 -308,310 -514,233 -206,-78 -310,-308 -233,-514 304,-808 473,-1696 508,-2604 61,-1562 -272,-3180 -998,-4548 -715,-1348 -1813,-2450 -3292,-3006 -598,-225 -1260,-361 -1984,-390 -1704,-66 -3323,533 -4856,1315 541,-5 1091,71 1650,240 2319,702 3679,2553 4140,4531 197,847 229,1719 99,2536 -131,827 -427,1597 -884,2228 -11,15 -22,30 -33,45 18,3222 652,6310 1878,8863 928,1934 2196,3560 3792,4699 1587,1133 3505,1787 5741,1786 1721,0 3633,-387 5732,-1237 -5267,-838 -6236,-3482 -5942,-6896 110,-1271 404,-2647 709,-4075 201,-941 408,-1906 565,-2858 216,-1307 215,-2629 -351,-3990 -574,-1379 -1731,-2814 -3831,-4342 -179,-129 -219,-379 -89,-558 129,-179 379,-219 558,-89 2231,1624 3472,3175 4099,4682 22,53 43,106 64,159 966,1754 1416,3787 1867,5821 803,3623 1607,7246 5426,8971 -24,-53 -48,-106 -71,-159 -170,-391 -308,-792 -422,-1201 -251,-902 32,-1634 323,-2387 440,-1137 902,-2334 -1196,-4299 -161,-150 -169,-402 -19,-563 150,-161 402,-169 563,-19 1555,1456 1921,2569 1847,3535 382,1878 1388,4304 3377,5811 1260,955 2924,1542 5090,1388 -705,-745 -999,-1761 -1314,-2846 -53,-183 -107,-368 -163,-553 -3,-9 -6,-17 -8,-26 -488,-1596 -1202,-3247 -3625,-4101 -208,-73 -317,-301 -244,-509 73,-208 301,-317 509,-244 2169,765 3129,2055 3703,3428 631,-1220 1968,-1532 3491,-1888 2286,-534 5048,-1179 5990,-5854 -483,273 -970,457 -1459,576 -753,182 -1503,206 -2251,152 -579,-42 -1035,-233 -1476,-447 -6,-3 -11,-5 -17,-8 -70,-34 -139,-69 -209,-103 -829,-413 -1671,-833 -3327,-56 -199,93 -437,7 -530,-192 -93,-199 -7,-437 192,-530 1925,-903 2938,-474 3899,2 531,-963 821,-1980 910,-3002 148,-1706 -265,-3429 -1064,-4941 -801,-1514 -1987,-2814 -3386,-3673 -960,-590 -2018,-970 -3118,-1065 -1084,-94 -2207,91 -3302,592 -731,334 -1451,809 -2142,1434 481,12 949,130 1391,332 557,256 1067,645 1496,1124 425,474 776,1039 1020,1652 470,1181 539,2537 -22,3760 -55,120 -120,245 -194,369 -331,556 -885,1216 -1604,1626 -321,184 -673,319 -1052,377 564,340 1127,625 1678,833 2203,832 4245,380 5463,-2844 374,-990 411,-2037 200,-3025 -232,-1083 -761,-2093 -1472,-2880 -148,-163 -135,-415 28,-563 163,-148 415,-135 563,28 805,889 1402,2028 1663,3249 242,1129 197,2330 -234,3472 -1430,3785 -3860,4303 -6491,3309 -3667,-1385 -7681,-5841 -9707,-8089l-128 -142c-247,-274 -492,-533 -737,-778 -3787,-3794 -8448,-5509 -13112,-5420 -2492,48 -4986,611 -7349,1648l-377 170c-4,2 -8,3 -11,5 -1924,892 -3755,2100 -5421,3601 -294,265 -579,535 -852,808 -2214,2210 -3753,5511 -4384,8978 -423,2324 -437,4720 29,6907 461,2166 1393,4124 2864,5598 1264,1266 2932,2180 5048,2565zm15429 -5643c-57,-125 -2,-273 123,-330 125,-57 273,-2 330,123 445,972 1090,1788 1962,2378 810,547 1820,901 3053,1005 138,11 240,132 229,270 -11,138 -132,240 -270,229 -1323,-111 -2412,-495 -3291,-1089 -951,-643 -1653,-1530 -2136,-2585zm3616 -28594c-136,23 -265,-68 -288,-204 -23,-136 68,-265 204,-288 894,-153 1769,-144 2568,184 802,329 1516,974 2075,2088 61,123 12,273 -111,334 -123,61 -273,12 -334,-111 -499,-994 -1123,-1564 -1819,-1850 -699,-287 -1484,-292 -2294,-153zm-11156 3380c847,-130 1699,-204 2551,-221 4304,-83 8604,1305 12273,4359 230,-135 450,-292 657,-469 846,-718 1478,-1744 1760,-2862 280,-1109 213,-2305 -337,-3371 -154,-299 -347,-589 -582,-866 -3667,-4317 -9261,-848 -13451,1751 -1054,654 -2023,1255 -2870,1678z"></path></g></svg>